<svg width="100" height="72" viewBox="0 0 100 72" fill="none" xmlns="http://www.w3.org/2000/svg">
<g clipPath="url(#clip0_385_5761)">
<path d="M47.0581 32.5642C47.3338 32.3168 47.1614 32.4589 47.0191 32.5006C47.0134 32.5023 46.8195 32.548 46.8251 32.5463C46.7095 32.5644 46.5511 32.5655 46.4238 32.5569C46.0777 32.526 45.7438 32.3972 45.4511 32.222C44.8768 31.8774 44.5022 31.3396 44.3394 30.705C43.9759 29.3081 44.6887 27.5098 45.7517 26.5421C45.9663 26.3472 46.2162 26.1748 46.5024 26.1062C46.6097 26.0816 46.713 26.0735 46.829 26.0856C46.9159 26.0947 47.0025 26.1222 47.0835 26.1514C47.2055 26.192 47.0257 26.0876 47.1325 26.1876C47.311 26.3561 47.4932 26.6235 47.6605 26.8835C47.7333 26.9942 47.8004 27.1066 47.8685 27.2218C47.8884 27.2549 47.9073 27.2945 47.9301 27.3268C48.0358 27.4817 47.8862 27.1798 47.9248 27.3103C47.9715 27.4655 48.0407 27.6137 48.0845 27.7699C48.1117 27.8645 48.1352 27.9572 48.1567 28.0536C48.1705 28.1161 48.1834 28.1757 48.1972 28.2382C48.2034 28.2575 48.2413 28.4731 48.2109 28.3006C48.301 28.8245 48.3448 29.3599 48.3372 29.8902C48.3297 30.4205 48.2696 31.0007 48.0903 31.4908C48.125 31.395 48.0422 31.603 48.0452 31.5929C48.012 31.6641 47.9787 31.7352 47.9389 31.8053C47.9108 31.8536 47.8827 31.9019 47.8546 31.9501C47.7819 32.0731 47.9223 31.8894 47.795 32.0265C47.7576 32.0655 47.724 32.1064 47.6867 32.1454C47.6561 32.1762 47.6275 32.2034 47.5969 32.2343C47.6607 32.1809 47.6731 32.1709 47.6284 32.2062C47.5856 32.2378 47.5419 32.2667 47.4982 32.2956C47.4622 32.319 47.4252 32.3397 47.3874 32.3577C47.4772 32.3173 47.4828 32.3156 47.3969 32.3486C47.0078 32.5041 46.7547 32.89 46.8871 33.3035C47.0046 33.6702 47.4677 33.9496 47.8597 33.7932C49.3295 33.2014 49.7765 31.6716 49.8699 30.2527C49.9475 29.0663 49.8381 27.6655 49.2819 26.5901C48.964 25.9768 48.5023 25.1963 47.8775 24.8494C46.9226 24.3177 45.7353 24.6054 44.9211 25.2614C43.2682 26.5933 42.3742 29.0311 42.8291 31.0637C43.0799 32.1865 43.8687 33.1525 44.91 33.6722C45.8409 34.1386 47.3447 34.3432 48.1993 33.5804C48.5093 33.3041 48.4365 32.7657 48.1491 32.51C47.8147 32.2145 47.3662 32.2915 47.0534 32.5687L47.0581 32.5642Z" fill="#231F20"/>
<path d="M52.7824 25.3794C52.9423 26.9767 53.1384 28.687 53.817 30.164C54.1279 30.8431 54.5605 31.5811 55.2957 31.8935C55.7641 32.0924 56.342 32.1082 56.8252 31.9353C58.1597 31.4558 58.7117 29.8747 59.0206 28.6522C59.3802 27.2286 59.5803 25.6276 59.3774 24.1682C59.3197 23.7645 59.0237 23.4236 58.5754 23.4429C58.1787 23.4582 57.7854 23.8244 57.8261 24.2333C58.0637 26.5495 58.4893 28.7916 59.0561 31.047C59.1552 31.4437 59.6468 31.6566 60.0287 31.5367C60.4502 31.4044 60.6384 30.9813 60.5384 30.5818C60.2794 29.5496 60.0166 28.5155 59.8179 27.4675C59.6191 26.4194 59.4899 25.2676 59.3774 24.1682L57.8289 24.2324C57.9926 25.3947 57.8744 26.5028 57.6662 27.6118C57.6086 27.9181 57.5389 28.2252 57.458 28.5267C57.3771 28.8282 57.2726 29.1432 57.191 29.3356C57.0888 29.5801 56.9679 29.8152 56.8257 30.0419C56.7106 30.2267 56.9179 29.9311 56.7881 30.0992C56.7478 30.1483 56.7103 30.1965 56.6671 30.2464C56.6393 30.2764 56.6107 30.3036 56.5838 30.3363C56.4439 30.4924 56.611 30.3338 56.5161 30.397C56.4724 30.4259 56.4165 30.4555 56.3738 30.4872C56.25 30.5867 56.5214 30.4621 56.3653 30.4898C56.3389 30.4951 56.2861 30.5147 56.2634 30.5218C56.1206 30.5909 56.4151 30.5288 56.2549 30.5245C56.195 30.522 56.1349 30.5288 56.0739 30.5327C56.0561 30.5353 55.9551 30.5215 55.9493 30.5324C55.9838 30.4943 56.2111 30.5625 56.0447 30.5388C56.012 30.5339 55.9758 30.518 55.944 30.5159C55.8204 30.5091 56.1434 30.6232 55.9998 30.5347C55.9693 30.517 55.9321 30.4983 55.8996 30.4843C55.8782 30.4758 55.859 30.4546 55.8376 30.4461C55.735 30.4176 55.9915 30.5768 55.9134 30.4981C55.8712 30.4538 55.8128 30.4175 55.7658 30.3776C55.7188 30.3377 55.6813 30.2888 55.6372 30.2481C55.8323 30.4296 55.6483 30.2537 55.5999 30.19C55.4894 30.0396 55.397 29.8774 55.3103 29.7135C55.294 29.6822 55.2777 29.6509 55.2606 29.6168C55.3597 29.8194 55.2474 29.5755 55.2285 29.5359C55.1684 29.397 55.1159 29.2527 55.0635 29.1083C54.9499 28.7829 54.8542 28.4549 54.7745 28.1189C54.5508 27.197 54.4268 26.2559 54.3329 25.3115C54.293 24.9053 53.9698 24.5668 53.5308 24.5862C53.1313 24.6024 52.7408 24.9677 52.7815 25.3766L52.7824 25.3794Z" fill="#231F20"/>
<path d="M40.8863 33.9403C40.8556 34.311 40.2723 34.4728 40.0267 34.1919C39.781 33.911 39.97 33.4026 40.3402 33.3046C40.7104 33.2066 40.8364 33.5706 40.8891 33.9394" fill="#231F20"/>
<path d="M40.499 33.9552L40.5016 33.9635C40.5013 33.9333 40.5057 33.8985 40.5082 33.8674C40.5057 33.8985 40.4967 33.9286 40.4868 33.956L40.5204 33.8666C40.5105 33.894 40.494 33.9204 40.4776 33.9468L40.5335 33.8685C40.5094 33.9004 40.4845 33.9294 40.4521 33.9548L40.5283 33.8914C40.4912 33.9213 40.4523 33.9456 40.4088 33.9653L40.5034 33.9205C40.4571 33.9411 40.409 33.9562 40.3563 33.9666L40.4597 33.9493C40.4099 33.9589 40.3574 33.9602 40.3068 33.9579L40.406 33.9662C40.3611 33.9621 40.3181 33.9543 40.2791 33.9393L40.3703 33.9713C40.3386 33.96 40.3089 33.9451 40.2784 33.9274L40.3579 33.9813C40.3301 33.9627 40.3043 33.9405 40.2805 33.9146L40.3446 33.9885C40.319 33.9571 40.2953 33.9221 40.2773 33.8852L40.3224 33.9773C40.3043 33.9405 40.2957 33.9037 40.2862 33.8642L40.3029 33.9652C40.2944 33.9193 40.2945 33.8707 40.2973 33.8213L40.2879 33.9183C40.2946 33.8616 40.3051 33.8067 40.3258 33.7547L40.2922 33.8442C40.3109 33.7958 40.3362 33.7484 40.3652 33.7029L40.3093 33.7811C40.3392 33.7384 40.3765 33.6994 40.4176 33.6622L40.3413 33.7256C40.3757 33.6966 40.4146 33.6722 40.4552 33.6534L40.3606 33.6983C40.4041 33.6786 40.4466 33.6652 40.4936 33.6565L40.3902 33.6738C40.423 33.6696 40.4531 33.6662 40.4849 33.6684L40.3857 33.6601C40.4147 33.6631 40.4418 33.6698 40.4697 33.6792L40.3785 33.6472C40.3999 33.6556 40.4222 33.6668 40.4425 33.6817L40.3629 33.6278C40.387 33.6445 40.41 33.6676 40.4321 33.688L40.3679 33.6141C40.4018 33.652 40.4282 33.6953 40.4488 33.7404L40.4038 33.6483C40.4524 33.7514 40.4792 33.8643 40.4995 33.9763L40.4827 33.8754C40.4887 33.9038 40.491 33.9304 40.497 33.9589C40.5118 34.0634 40.5401 34.1517 40.623 34.2258C40.6921 34.286 40.8028 34.3302 40.8966 34.3219C40.9971 34.3147 41.1028 34.2754 41.1709 34.1964C41.2322 34.1256 41.2867 34.0235 41.2717 33.9281C41.2504 33.774 41.2244 33.6153 41.1682 33.4691C41.1121 33.3229 41.0243 33.1654 40.8894 33.0651C40.7998 32.9991 40.7052 32.9469 40.5931 32.9275C40.468 32.9061 40.3656 32.917 40.2433 32.9432C40.0683 32.98 39.8992 33.0937 39.7832 33.2272C39.6672 33.3607 39.5757 33.532 39.5442 33.7057C39.5285 33.7926 39.5201 33.8832 39.5288 33.9685C39.5459 34.0996 39.5759 34.1934 39.6354 34.3112C39.7077 34.4493 39.8486 34.578 39.9955 34.6381C40.1424 34.6982 40.3057 34.7319 40.4664 34.7088C40.5557 34.6959 40.6441 34.6803 40.7263 34.6454C40.8463 34.5926 40.9298 34.5421 41.0271 34.457C41.09 34.4008 41.1429 34.3326 41.1818 34.2597C41.243 34.1495 41.2572 34.048 41.268 33.9262C41.2763 33.8356 41.2074 33.7177 41.142 33.6593C41.0729 33.5991 40.9623 33.555 40.8684 33.5632C40.768 33.5704 40.6622 33.6097 40.5942 33.6887L40.5383 33.7669C40.5071 33.8252 40.4937 33.8901 40.4933 33.957L40.499 33.9552Z" fill="#231F20"/>
<path d="M51.6605 34.6671C51.4073 34.6252 51.2136 34.419 51.1603 34.1748C51.1199 33.9903 51.1357 33.8063 51.2597 33.6491C51.5143 33.3264 52.0596 33.1917 52.3453 33.4813C52.5953 33.7366 52.4396 34.7958 51.6577 34.668L51.6605 34.6671Z" fill="#231F20"/>
<path d="M51.7474 34.2969C51.7241 34.2921 51.6953 34.2799 51.67 34.2788C51.7296 34.2995 51.7444 34.307 51.7184 34.2939C51.7082 34.291 51.7008 34.2873 51.6933 34.2836C51.672 34.2751 51.6553 34.2621 51.6339 34.2537C51.6099 34.2369 51.6228 34.2481 51.6746 34.2834C51.6635 34.2778 51.6543 34.2685 51.6451 34.2593C51.6322 34.2481 51.6156 34.2352 51.6018 34.2213C51.53 34.1528 51.6391 34.2794 51.6027 34.224C51.5781 34.1862 51.5544 34.1512 51.5318 34.1097L51.5769 34.2018C51.5489 34.1438 51.5323 34.0823 51.5186 34.0198L51.5353 34.1208C51.5295 34.0832 51.5237 34.0455 51.5235 34.0062C51.5239 33.9878 51.5242 33.9695 51.5246 33.9512C51.5259 33.8871 51.5069 34.0417 51.5232 33.9759C51.5273 33.9595 51.5333 33.9394 51.5365 33.9202C51.5489 33.8617 51.506 33.9904 51.5237 33.9484C51.5306 33.9311 51.5404 33.9129 51.5481 33.8983C51.5568 33.8865 51.5955 33.8227 51.5579 33.8801C51.5213 33.931 51.552 33.891 51.5635 33.8783C51.575 33.8656 51.5865 33.8529 51.5961 33.8438C51.6056 33.8348 51.6199 33.8212 51.6314 33.8085C51.6792 33.7631 51.5515 33.8699 51.6038 33.8292C51.6562 33.7885 51.714 33.7552 51.7755 33.7238L51.6809 33.7686C51.7566 33.7328 51.8358 33.7079 51.9186 33.6941L51.8151 33.7114C51.8744 33.7019 51.9306 33.7024 51.9925 33.7012C51.8584 33.7008 51.9513 33.699 51.9942 33.7067C52.0073 33.7087 52.0184 33.7143 52.0315 33.7163C52.0922 33.7306 51.9414 33.6778 51.9962 33.7031C52.0184 33.7143 52.0416 33.7283 52.0639 33.7395C51.9765 33.7001 52.0001 33.6958 52.0333 33.7218C52.0462 33.7329 52.0582 33.7413 52.0683 33.7533C52.0812 33.7644 52.1114 33.8004 52.0573 33.7385C52.0032 33.6766 52.0317 33.7071 52.0389 33.72C52.0471 33.7356 52.058 33.7504 52.0662 33.7661L52.0211 33.674C52.0418 33.7191 52.0577 33.7687 52.067 33.8174L52.0503 33.7164C52.0561 33.7541 52.0619 33.7917 52.0621 33.8311C52.0622 33.8705 52.052 33.9162 52.0578 33.9538C52.056 33.9483 52.0721 33.8431 52.0626 33.9007C52.0596 33.9107 52.0603 33.9226 52.0573 33.9327C52.055 33.9547 52.0489 33.9747 52.0438 33.9976C52.0355 34.0396 52.0178 34.0816 52.0066 34.1246C52.0066 34.1246 52.047 34.0269 52.0265 34.0698C52.0206 34.0807 52.0157 34.0944 52.0098 34.1053C52.001 34.1263 51.9913 34.1446 51.9787 34.1637C51.9661 34.1828 51.9564 34.201 51.9439 34.2201C51.9225 34.2602 51.9785 34.1728 51.9785 34.1728C51.9729 34.1746 51.9631 34.1928 51.9584 34.1974C51.9449 34.2137 51.9315 34.2301 51.9143 34.2445C51.9076 34.2527 51.8972 34.259 51.8905 34.2672C51.8531 34.3062 51.9608 34.2148 51.9324 34.2328C51.8935 34.2572 51.8583 34.2834 51.8157 34.3059L51.9103 34.261C51.8639 34.2816 51.8159 34.2967 51.766 34.3063L51.8694 34.289C51.8337 34.2941 51.8008 34.2984 51.7662 34.2971C51.7503 34.296 51.7344 34.295 51.7193 34.2966C51.8459 34.2933 51.7736 34.3009 51.7343 34.295C51.5344 34.2637 51.3083 34.3741 51.2695 34.5835C51.232 34.7773 51.3475 35.0019 51.5605 35.0352C51.8034 35.0743 52.0308 35.0454 52.2504 34.934C52.4189 34.8477 52.5473 34.7043 52.644 34.5495C52.823 34.2628 52.8666 33.9032 52.8036 33.5801C52.7226 33.1717 52.3185 32.9405 51.9137 32.9401C51.6953 32.9389 51.4736 33.0145 51.2841 33.1226C51.0945 33.2306 50.9111 33.4065 50.8266 33.609C50.5856 34.1883 50.9116 34.9142 51.5605 35.0352C51.7594 35.0729 51.9857 34.9533 52.0254 34.7467C52.065 34.5401 51.9463 34.3346 51.7343 34.295L51.7474 34.2969Z" fill="#231F20"/>
<path d="M64.4108 32.2516C64.6219 32.4342 64.615 32.7822 64.385 32.9485C64.0741 33.1735 63.6835 32.9259 63.595 32.7079C63.4805 32.4283 63.6815 32.0254 63.9862 32.0633C64.1358 32.0831 64.2919 32.1524 64.4117 32.2544L64.4108 32.2516Z" fill="#231F20"/>
<path d="M64.1494 32.5339C64.166 32.5469 64.1798 32.5608 64.1945 32.5774L64.1304 32.5035C64.156 32.5349 64.1788 32.5672 64.1968 32.604L64.1517 32.512C64.1698 32.5488 64.1784 32.5855 64.1879 32.625L64.1712 32.5241C64.1788 32.5672 64.1798 32.6094 64.1752 32.6533L64.1846 32.5563C64.1791 32.5974 64.1719 32.6331 64.1561 32.6714L64.1897 32.582C64.1759 32.6166 64.1604 32.6458 64.1391 32.6767L64.195 32.5985C64.1738 32.6294 64.148 32.6558 64.1185 32.6802L64.1947 32.6168C64.1651 32.6413 64.1338 32.6602 64.1017 32.6764L64.1963 32.6315C64.1612 32.6486 64.1216 32.661 64.0831 32.667L64.1865 32.6497C64.1452 32.6566 64.102 32.658 64.0608 32.6558L64.16 32.6641C64.1151 32.66 64.0713 32.6495 64.0265 32.6362L64.1178 32.6683C64.0647 32.6485 64.0128 32.6223 63.9656 32.5916L64.0451 32.6456C64.0007 32.614 63.962 32.5806 63.9244 32.5409L63.9885 32.6148C63.9629 32.5834 63.9401 32.5511 63.9221 32.5143L63.9671 32.6063C63.95 32.5723 63.9422 32.5383 63.9345 32.5043L63.9512 32.6052C63.9419 32.5566 63.9428 32.5108 63.9456 32.4614L63.9362 32.5584C63.9428 32.5108 63.953 32.4651 63.969 32.4176L63.9354 32.5071C63.9502 32.466 63.9725 32.4287 63.9957 32.3941L63.9398 32.4723C63.961 32.4414 63.9868 32.4151 64.0155 32.3879L63.9393 32.4512C63.964 32.4313 63.9925 32.4133 64.019 32.3989L63.9244 32.4438C63.9518 32.4321 63.9782 32.4269 64.0036 32.4189L63.9002 32.4362C63.9237 32.4318 63.949 32.433 63.9743 32.4342L63.8751 32.4259C63.9359 32.431 63.9937 32.4463 64.0533 32.467L63.9621 32.435C64.0262 32.4603 64.0885 32.4894 64.1448 32.5293L64.0653 32.4754C64.0931 32.494 64.1171 32.5107 64.1401 32.5338C64.2157 32.5951 64.3152 32.6336 64.4137 32.63C64.5122 32.6264 64.6246 32.579 64.6879 32.5045C64.8184 32.3482 64.8251 32.1065 64.6628 31.9693C64.3687 31.7218 63.921 31.568 63.5624 31.7898C63.4068 31.8872 63.2941 32.0408 63.2327 32.2088C63.1655 32.3876 63.1554 32.5698 63.1958 32.7544C63.2313 32.904 63.3262 33.035 63.4347 33.1405C63.5524 33.2553 63.7009 33.3301 63.8564 33.3783C64.012 33.4266 64.1976 33.423 64.3569 33.376C64.5549 33.3138 64.7121 33.1826 64.8232 33.0142C64.8687 32.9423 64.9012 32.8593 64.9216 32.777C64.9419 32.6948 64.9503 32.6042 64.9388 32.5198C64.9111 32.307 64.8277 32.1147 64.6637 31.972C64.5909 31.9099 64.4885 31.8723 64.3901 31.8759C64.2916 31.8795 64.1791 31.9269 64.1158 32.0014C63.9825 32.1585 63.9806 32.3958 64.1409 32.5366L64.1494 32.5339Z" fill="#231F20"/>
<path d="M8.83111 37.5953C8.51688 37.2752 8.18164 36.8313 8.37976 36.4293C8.48607 36.2169 8.71628 36.0901 8.93835 35.9961C10.1405 35.4823 11.5387 35.4348 12.7663 35.8657C12.6267 34.4289 13.2746 32.9331 14.431 32.024C14.6499 31.8521 14.9135 31.6935 15.1895 31.7192C15.5758 31.7588 15.827 32.135 15.9484 32.4944C16.2875 33.5045 16.0514 34.6041 15.9107 35.6616C15.677 37.4492 15.7313 39.2708 16.0725 41.0357C13.6938 39.9466 11.3171 38.854 8.93837 37.7649" fill="#BA2B40"/>
<path d="M9.35388 37.0305C9.25014 36.9205 9.18335 36.7898 9.09004 36.6734C9.18883 36.7971 8.979 36.7447 9.12609 36.7471C9.24506 36.7492 9.45212 36.6083 9.57288 36.5674C9.78416 36.498 10.0029 36.4324 10.2247 36.3962C11.0269 36.2567 11.8347 36.349 12.5954 36.6048C13.0599 36.7624 13.581 36.2803 13.5439 35.8338C13.4665 34.9024 13.7186 33.9495 14.3207 33.2053C14.4389 33.059 14.9466 32.4475 15.0968 32.4793C15.1341 32.4888 15.2233 32.7672 15.249 32.8472C15.3297 33.1283 15.3503 33.4161 15.3502 33.7074C15.3497 34.3083 15.2377 34.9017 15.1605 35.4964C15.0797 36.1285 15.0251 36.7646 15.0042 37.3992C14.9665 38.7005 15.0959 39.9888 15.337 41.2663L16.4353 40.3603C14.0566 39.2713 11.6799 38.1786 9.30118 37.0896C8.40305 36.6766 7.67943 38.0233 8.58127 38.4381C10.96 39.5271 13.3367 40.6198 15.7154 41.7088C16.3683 42.0076 16.9344 41.4324 16.8137 40.8029C16.6022 39.6859 16.5216 38.5401 16.5486 37.3999C16.5756 36.2598 16.8388 35.0697 16.8899 33.8977C16.9362 32.8759 16.7192 31.3724 15.5452 31.0218C14.3713 30.6711 13.3976 31.8202 12.8359 32.6519C12.1951 33.5963 11.8965 34.7732 11.9908 35.8935L12.9393 35.1225C11.7001 34.7043 10.2952 34.7114 9.047 35.1396C8.41581 35.3559 7.77045 35.6737 7.58375 36.3543C7.39704 37.0349 7.84836 37.676 8.3038 38.155C8.5894 38.4538 9.13339 38.3831 9.39954 38.0963C9.703 37.7705 9.63489 37.3246 9.34929 37.0259L9.35388 37.0305Z" fill="#231F20"/>
<path d="M84.5377 40.1429L81.8817 35.4181C81.4968 34.7319 81.0977 33.9621 81.2842 33.1936C81.4952 32.3264 82.4679 31.7571 83.3767 31.8147C84.2856 31.8723 85.0914 32.4538 85.598 33.1898C86.1046 33.9259 86.3488 34.8049 86.5164 35.6777C86.9892 34.7921 87.577 33.9644 88.2635 33.221C88.7767 32.6655 89.4904 32.1138 90.229 32.3007C90.5433 32.3781 90.8109 32.5914 90.9932 32.8497C91.3797 33.405 91.3752 34.1588 91.1332 34.7931C90.8912 35.4273 90.4439 35.9651 89.9833 36.4707C88.4739 38.1247 86.7155 39.5746 84.7232 40.6247" fill="#BA2B40"/>
<path d="M85.1888 39.726L83.0905 35.9943C82.8017 35.4812 82.477 34.9732 82.2355 34.4331C82.0497 34.0181 81.8817 33.5035 82.1511 33.1004C82.5943 32.4333 83.5574 32.4466 84.2319 32.8903C85.2376 33.5516 85.5606 34.8125 85.7752 35.9102C85.9064 36.582 86.9114 36.5609 87.2003 36.0242C87.5095 35.4539 87.8547 34.9086 88.2574 34.3969C88.6061 33.9598 88.9823 33.4625 89.4781 33.1734C89.8402 32.9626 90.2046 32.9727 90.4085 33.3759C90.6422 33.8335 90.4934 34.399 90.2666 34.8282C89.9806 35.364 89.5519 35.8141 89.1365 36.257C88.6695 36.7524 88.1804 37.2276 87.6646 37.6777C86.6414 38.5753 85.5045 39.3508 84.297 39.9937C83.9276 40.1916 83.8508 40.7193 84.0637 41.0439C84.3049 41.4081 84.7659 41.4576 85.1362 41.2625C86.3304 40.6268 87.4288 39.8573 88.4588 38.9909C89.4203 38.1825 90.3824 37.2889 91.1358 36.2879C91.8892 35.2868 92.3963 33.9444 91.7998 32.7238C91.2033 31.5032 89.691 31.2042 88.5429 31.9741C87.3635 32.763 86.4831 34.1255 85.8286 35.3382L87.2537 35.4522C87.0132 34.2352 86.6038 33.0348 85.7049 32.1336C84.9209 31.3481 83.7797 30.9053 82.6546 31.1249C81.6263 31.3263 80.6925 32.1139 80.5045 33.1499C80.2746 34.4053 81.063 35.5444 81.648 36.5835L83.8848 40.563C84.0867 40.9214 84.6204 40.9936 84.9573 40.7817C85.3293 40.5435 85.3897 40.0907 85.1906 39.7315L85.1888 39.726Z" fill="#231F20"/>
<path d="M26.3739 30.6302C26.9168 31.3336 27.5453 31.9737 28.2639 32.5067C28.4274 32.6283 28.5992 32.7079 28.8112 32.699C29.0044 32.6899 29.2322 32.5942 29.3597 32.448C29.611 32.1537 29.653 31.6338 29.3094 31.3776C28.7912 30.9941 28.3181 30.557 27.8955 30.0737L28.0238 30.2216C27.9047 30.083 27.7875 29.9408 27.676 29.7967C27.5535 29.638 27.4023 29.5155 27.1988 29.4732C27.0112 29.432 26.7641 29.4671 26.6044 29.5809C26.2813 29.8067 26.1134 30.2932 26.3711 30.6311L26.3739 30.6302Z" fill="#BA2B40"/>
<path d="M26.3985 33.4872C27.1542 34.233 28.0161 34.8727 28.94 35.405C29.2875 35.6054 29.8147 35.4338 29.9866 35.0765C30.1733 34.6872 30.0305 34.2708 29.6599 34.0564C29.4161 33.9175 29.1782 33.7677 28.9479 33.6124L29.1107 33.7221C28.5142 33.3177 27.9571 32.8615 27.4431 32.3553C27.1572 32.0749 26.6054 32.1115 26.3474 32.414C26.0673 32.7446 26.0924 33.1827 26.3976 33.4844L26.3985 33.4872Z" fill="#3E64AE"/>
<path d="M26.6383 36.9375C27.4604 37.5502 28.3323 38.1049 29.2461 38.5766C29.6043 38.7615 30.115 38.6164 30.2928 38.2481C30.4706 37.8798 30.3464 37.4242 29.9661 37.228C29.3621 36.917 28.7784 36.5722 28.2151 36.1938L28.3779 36.3035C28.143 36.1436 27.91 35.9801 27.6838 35.8083C27.5203 35.6867 27.3457 35.608 27.1365 35.616C26.9433 35.6251 26.7156 35.7208 26.5881 35.867C26.3377 36.1641 26.2947 36.6812 26.6383 36.9375Z" fill="#BA2B40"/>
<path d="M26.6883 40.32C27.5498 40.881 28.4104 41.4392 29.2719 42.0001C29.4255 42.1006 29.6935 42.1014 29.8632 42.0482C30.0442 41.9913 30.2373 41.8458 30.3185 41.6716C30.3997 41.4975 30.4433 41.2836 30.373 41.0932C30.2991 40.8919 30.1722 40.7679 29.9918 40.6516C29.1303 40.0906 28.2697 39.5325 27.4082 38.9715C27.2546 38.8711 26.9866 38.8702 26.8168 38.9235C26.6358 38.9803 26.4427 39.1259 26.3615 39.3C26.2803 39.4742 26.2368 39.6881 26.3071 39.8784C26.3809 40.0797 26.5078 40.2037 26.6883 40.32Z" fill="#3E64AE"/>
<path d="M26.1772 43.6326C26.9624 43.9263 27.7075 44.3083 28.3984 44.7741L28.2356 44.6644C28.3234 44.7248 28.4113 44.7853 28.5 44.8484C28.6663 44.9692 28.8325 45.0505 29.0473 45.0408C29.2405 45.0317 29.4682 44.9359 29.5958 44.7897C29.7233 44.6435 29.8133 44.4484 29.7974 44.2531C29.7816 44.0579 29.7081 43.8382 29.5455 43.7193C28.7286 43.1323 27.8488 42.6408 26.9009 42.286C26.7027 42.2116 26.5217 42.1713 26.3095 42.2379C26.1285 42.2948 25.9354 42.4403 25.8542 42.6145C25.773 42.7886 25.7294 43.0025 25.7997 43.1928C25.8656 43.3694 25.993 43.563 26.1809 43.6345L26.1772 43.6326Z" fill="#BA2B40"/>
<path d="M26.0031 46.8785C26.759 47.4696 27.5858 47.9807 28.4636 48.3788C28.6466 48.4639 28.857 48.4889 29.055 48.4268C29.236 48.37 29.4291 48.2244 29.5103 48.0503C29.6842 47.6893 29.5737 47.2082 29.1836 47.0302C28.6077 46.768 28.0542 46.4593 27.5307 46.1078L27.6935 46.2175C27.4715 46.0687 27.2562 45.9118 27.0477 45.7467C26.8898 45.6233 26.7058 45.5445 26.5004 45.5543C26.3072 45.5634 26.0794 45.6592 25.9519 45.8054C25.6967 46.1069 25.6653 46.6114 26.0022 46.8758L26.0031 46.8785Z" fill="#3E64AE"/>
<path d="M26.2913 49.5281L27.8377 50.3807C28.0074 50.4731 28.2452 50.4864 28.4291 50.4287C28.613 50.371 28.8032 50.2264 28.8844 50.0522C28.9656 49.8781 29.0092 49.6641 28.9389 49.4738C28.8685 49.2835 28.7431 49.1348 28.5577 49.0322C28.0431 48.7477 27.5286 48.4631 27.0112 48.1795C26.8415 48.0871 26.6037 48.0738 26.4199 48.1315C26.236 48.1892 26.0457 48.3339 25.9645 48.508C25.8833 48.6822 25.8398 48.8961 25.9101 49.0864C25.9804 49.2767 26.1059 49.4254 26.2913 49.5281Z" fill="#BA2B40"/>
<path d="M68.54 48.5534C69.2122 48.8734 69.8572 49.2444 70.4723 49.6581L70.3095 49.5484C70.4177 49.6237 70.525 49.6962 70.634 49.7742C70.8003 49.895 70.9665 49.9763 71.1813 49.9665C71.3745 49.9575 71.6023 49.8617 71.7298 49.7155C71.8573 49.5693 71.9473 49.3742 71.9315 49.1789C71.9156 48.9836 71.8421 48.764 71.6795 48.6451C70.9161 48.0989 70.1131 47.6136 69.2636 47.2067C68.8997 47.0327 68.3977 47.1569 68.217 47.5352C68.0362 47.9136 68.1575 48.37 68.5437 48.5552L68.54 48.5534Z" fill="#BA2B40"/>
<path d="M69.2987 45.6056C69.4704 45.6944 69.6362 45.794 69.7981 45.901L69.6353 45.7913C70.008 46.0414 70.3424 46.3369 70.6367 46.6724L70.5084 46.5245C70.6422 46.6798 70.7683 46.8404 70.8813 47.0082C71.1044 47.3357 71.6079 47.4689 71.9538 47.2269C72.2996 46.9848 72.4276 46.529 72.1871 46.1767C71.6368 45.3724 70.8897 44.7119 70.0186 44.2571C69.6634 44.0713 69.1497 44.2173 68.972 44.5856C68.7942 44.9539 68.9175 45.4067 69.2987 45.6056Z" fill="#3E64AE"/>
<path d="M69.3191 42.365C69.9427 42.9217 70.5662 43.4784 71.1869 44.0361C71.4844 44.3038 72.016 44.2917 72.2827 43.9774C72.5493 43.6631 72.5511 43.1923 72.2324 42.907C71.6089 42.3502 70.9853 41.7935 70.3646 41.2359C70.0672 40.9682 69.5356 40.9803 69.2689 41.2946C69.0022 41.6088 69.0005 42.0797 69.3191 42.365Z" fill="#BA2B40"/>
<path d="M69.7133 39.4169C69.7531 39.4439 69.7929 39.4708 69.8326 39.4978L69.6698 39.3881C70.2738 39.7962 70.8411 40.2553 71.3664 40.7579C71.6543 41.0347 72.1994 41.0062 72.4621 40.6992C72.7403 40.3722 72.721 39.9232 72.4119 39.6288C71.802 39.0466 71.1372 38.5361 70.4341 38.0711C70.2805 37.9707 70.0097 37.9707 69.8428 38.0231C69.6617 38.0799 69.4686 38.2255 69.3875 38.3996C69.3063 38.5738 69.2627 38.7877 69.333 38.978L69.4203 39.163C69.4931 39.2736 69.5926 39.3607 69.7114 39.4205L69.7133 39.4169Z" fill="#3E64AE"/>
<path d="M69.9346 36.6374C70.2408 36.7962 70.5391 36.9696 70.8249 37.162L70.6621 37.0523C70.8693 37.1936 71.0734 37.345 71.2671 37.5026C71.4193 37.6278 71.6118 37.7039 71.8144 37.6949C72.0076 37.6859 72.2354 37.5901 72.3629 37.4439C72.4904 37.2977 72.5804 37.1026 72.5646 36.9073C72.5487 36.712 72.4731 36.5052 72.3126 36.3735C71.8025 35.9571 71.2428 35.5897 70.6545 35.2889C70.4792 35.1983 70.2527 35.1814 70.0632 35.2409C69.8737 35.3003 69.689 35.4432 69.6078 35.6174C69.5267 35.7915 69.4831 36.0055 69.5534 36.1958C69.6237 36.3861 69.7481 36.5412 69.9346 36.6374Z" fill="#BA2B40"/>
<path d="M69.792 33.5389C70.2845 34.0366 70.8192 34.4908 71.3932 34.8932C71.5624 35.013 71.7257 35.0953 71.9405 35.0855C72.1337 35.0764 72.3615 34.9807 72.489 34.8345C72.6165 34.6883 72.7065 34.4931 72.6907 34.2979C72.6748 34.1026 72.6042 33.882 72.4387 33.7641C71.8638 33.3589 71.3272 32.9084 70.8374 32.4098C70.7088 32.2803 70.4712 32.2092 70.2902 32.2175C70.0969 32.2265 69.8692 32.3223 69.7417 32.4685C69.6142 32.6147 69.5242 32.8098 69.54 33.0051C69.5575 33.215 69.6431 33.3854 69.792 33.5389Z" fill="#3E64AE"/>
<path d="M70.3633 31.1147C70.4068 31.1435 70.454 31.1742 70.4975 31.2031L70.3347 31.0934C70.7721 31.3899 71.1808 31.7228 71.5588 32.0866C71.694 32.2171 71.9222 32.2881 72.1061 32.2789C72.29 32.2698 72.527 32.1741 72.6546 32.0279C72.7821 31.8817 72.8721 31.6866 72.8562 31.4913C72.8397 31.2841 72.7551 31.1074 72.6043 30.9575C72.1398 30.5086 71.6292 30.1197 71.0852 29.7625C70.9316 29.6621 70.6636 29.6612 70.4938 29.7145C70.3128 29.7713 70.1197 29.9169 70.0385 30.091C69.9573 30.2652 69.9138 30.4791 69.9841 30.6694L70.0713 30.8544C70.1442 30.965 70.2437 31.0521 70.3624 31.112L70.3633 31.1147Z" fill="#BA2B40"/>
<path d="M33.108 51.4478C32.8118 51.6895 32.5874 51.951 32.3972 52.2807C32.2499 52.5303 32.1248 52.791 31.9812 53.0424C31.8376 53.2938 31.6816 53.5551 31.5192 53.8063C31.44 53.9283 31.3607 54.0502 31.2806 54.1694C31.2362 54.235 31.189 54.3014 31.1418 54.3678C31.084 54.4496 31.1505 54.3559 31.1717 54.325C31.1437 54.3641 31.1158 54.4032 31.0878 54.4423C30.9646 54.6115 30.8772 54.7663 30.8862 54.9789C30.8937 55.1677 30.9896 55.3894 31.1381 55.5127C31.2866 55.636 31.4854 55.7223 31.6854 55.7051C31.8853 55.6878 32.1144 55.6159 32.2338 55.454C32.6066 54.9365 32.9637 54.4088 33.2819 53.8569C33.4225 53.6155 33.5511 53.3658 33.6843 53.1207C33.7155 53.0624 33.7475 53.0069 33.7795 52.9513C33.7931 52.9258 33.8104 52.9021 33.8241 52.8766C33.8347 52.8612 33.9176 52.7411 33.8396 52.8475C33.7683 52.9457 33.829 52.8629 33.8472 52.8421C33.8693 52.8139 33.8914 52.7857 33.9144 52.7603C33.9604 52.7094 34.1387 52.5564 33.9482 52.7102C34.1111 52.5772 34.2345 52.4474 34.2835 52.2409C34.3274 52.0572 34.2937 51.816 34.1787 51.6609C34.0636 51.5059 33.8995 51.3724 33.7015 51.3374C33.5035 51.3025 33.2652 51.3166 33.1071 51.4451L33.108 51.4478Z" fill="#BA2B40"/>
<path d="M36.0115 51.6291C35.6387 52.098 35.2871 52.5846 34.9549 53.0833C34.8101 53.3017 34.6764 53.5257 34.5287 53.745C34.5122 53.7714 34.4949 53.795 34.4784 53.8214C34.4631 53.8414 34.4022 53.9333 34.4707 53.836C34.543 53.7314 34.4639 53.8442 34.4466 53.8678C34.4293 53.8914 34.4091 53.916 34.3918 53.9396C34.3081 54.0478 34.2162 54.1495 34.1196 54.2465C33.8339 54.5304 33.8581 55.0628 34.1699 55.3169C34.502 55.5859 34.9588 55.5639 35.2656 55.2582C35.6757 54.8474 35.9649 54.3409 36.2779 53.8604C36.3505 53.7466 36.4267 53.6347 36.5029 53.5228C36.5386 53.4691 36.5752 53.4182 36.611 53.3645C36.6302 53.3372 36.6476 53.3136 36.6669 53.2863C36.5501 53.4564 36.6244 53.3481 36.6495 53.3099C36.8133 53.0825 36.9825 52.8625 37.1555 52.6444C37.2823 52.4863 37.3635 52.3122 37.3572 52.1078C37.3496 51.919 37.2537 51.6973 37.1053 51.574C36.8027 51.3292 36.2785 51.2965 36.0095 51.6327L36.0115 51.6291Z" fill="#3E64AE"/>
<path d="M39.3312 51.895C38.5171 52.6481 37.9995 53.6661 37.4544 54.6078C37.2545 54.9558 37.4105 55.462 37.7811 55.6279C38.1713 55.8058 38.6134 55.6701 38.8278 55.2994C39.1625 54.721 39.4833 54.1288 39.8708 53.5794L39.7571 53.7395C39.9691 53.4393 40.2061 53.1586 40.4772 52.9067C40.6118 52.7825 40.6849 52.5442 40.6789 52.3701C40.6714 52.1813 40.5754 51.9596 40.427 51.8363C40.0828 51.559 39.6481 51.6013 39.3312 51.895Z" fill="#BA2B40"/>
<path d="M41.5792 55.3943C42.095 55.0898 42.4222 54.6049 42.7558 54.13C43.0893 53.6552 43.3948 53.2286 43.7138 52.7765C43.8189 52.6283 43.8204 52.3608 43.7683 52.1982C43.7117 52.0217 43.5645 51.8343 43.3871 51.7565C43.2096 51.6787 42.9911 51.638 42.7957 51.7085C42.589 51.7824 42.4647 51.9094 42.3404 52.085C41.9867 52.5844 41.631 53.0874 41.2773 53.5868L41.391 53.4267C41.2214 53.665 41.0463 53.8959 40.8214 54.0879L40.9738 53.9611C40.8976 54.0245 40.8216 54.0787 40.7372 54.1264C40.3893 54.3327 40.2685 54.85 40.5039 55.1766C40.754 55.5198 41.2019 55.6159 41.5764 55.3952L41.5792 55.3943Z" fill="#3E64AE"/>
<path d="M45.3988 51.4864C44.8715 52.4255 44.3479 53.3666 43.8207 54.3057C43.6245 54.6555 43.773 55.1581 44.1474 55.3258C44.5218 55.4935 44.9834 55.3698 45.1941 54.9973C45.7214 54.0581 46.2449 53.1171 46.7722 52.1779C46.9684 51.8281 46.8198 51.3256 46.4454 51.1579C46.0711 50.9902 45.6094 51.1138 45.3988 51.4864Z" fill="#BA2B40"/>
<path d="M48.5921 51.416C48.0639 52.3038 47.5339 53.1953 47.0057 54.0832C46.8012 54.4265 46.9646 54.9365 47.3325 55.1032C47.7254 55.2803 48.1611 55.1436 48.3791 54.7747C48.9073 53.8869 49.4374 52.9954 49.9655 52.1075C50.17 51.7642 50.0066 51.2542 49.6387 51.0875C49.2458 50.9105 48.8102 51.0472 48.5921 51.416Z" fill="#3E64AE"/>
<path d="M52.356 50.8718C51.8164 51.9666 51.2275 53.0343 50.5904 54.0777C50.3823 54.4191 50.5531 54.9329 50.9172 55.0977C51.3139 55.2767 51.7412 55.1334 51.9639 54.7693C52.6009 53.7258 53.1898 52.6581 53.7295 51.5634C53.9071 51.2042 53.7891 50.7194 53.4027 50.5433C53.0163 50.3673 52.5444 50.4881 52.356 50.8718Z" fill="#BA2B40"/>
<path d="M55.1513 50.9291C54.9144 51.4919 54.7158 52.067 54.5011 52.6411C54.4904 52.6657 54.4833 52.6922 54.4725 52.7168C54.5516 52.5069 54.5091 52.6173 54.4904 52.6657C54.4666 52.7277 54.4401 52.7907 54.4164 52.8527C54.3681 52.9741 54.3161 53.0936 54.2641 53.213C54.1426 53.4848 54.0042 53.7527 53.8576 54.0142C53.6577 54.3621 53.8128 54.8656 54.1844 55.0342C54.5559 55.2028 55.0195 55.0755 55.231 54.7057C55.5338 54.1738 55.7688 53.6146 55.9843 53.0433C56.0752 52.8024 56.1624 52.5596 56.2496 52.3168C56.2753 52.2511 56.2972 52.1835 56.3229 52.1178C56.3675 51.9946 56.2735 52.2456 56.308 52.1589C56.3218 52.1242 56.3356 52.0896 56.3466 52.0558C56.4029 51.9107 56.4628 51.7675 56.5228 51.6243C56.6015 51.4327 56.6417 51.2471 56.5772 51.0459C56.5207 50.8694 56.3735 50.682 56.196 50.6042C55.8431 50.445 55.3164 50.5405 55.1494 50.9327L55.1513 50.9291Z" fill="#3E64AE"/>
<path d="M58.0649 51.2187C57.4656 52.1471 56.9946 53.1354 56.6183 54.1667C56.5558 54.341 56.6266 54.601 56.7231 54.7467C56.8196 54.8924 57.0154 55.0372 57.2003 55.0702C57.4011 55.1043 57.6218 55.0836 57.7947 54.9625C57.9676 54.8415 58.0587 54.6885 58.13 54.4932C58.1537 54.4312 58.1766 54.3664 58.2003 54.3043L58.1311 54.4868C58.4749 53.587 58.9135 52.7212 59.4383 51.9103C59.5407 51.7537 59.5475 51.5028 59.4927 51.3319C59.438 51.1609 59.289 50.968 59.1115 50.8902C58.9341 50.8124 58.7156 50.7718 58.5202 50.8422C58.3248 50.9126 58.1818 51.0394 58.0649 51.2187Z" fill="#BA2B40"/>
<path d="M61.1046 50.9015C60.5303 51.8979 59.9902 52.9139 59.4819 53.9412C59.3043 54.3003 59.4222 54.7852 59.8086 54.9612C60.195 55.1373 60.666 55.0137 60.8553 54.6327C61.3628 53.6027 61.9065 52.5886 62.478 51.593C62.6779 51.2451 62.5228 50.7416 62.1512 50.573C61.762 50.3978 61.319 50.5308 61.1046 50.9015Z" fill="#3E64AE"/>
<path d="M63.7868 50.8972C63.3695 51.8201 62.9494 52.7438 62.532 53.6667C62.4478 53.8509 62.414 54.0466 62.4776 54.2451C62.5341 54.4215 62.6813 54.6089 62.8588 54.6867C63.2192 54.8497 63.7282 54.7476 63.9055 54.3582C64.3228 53.4354 64.7429 52.5116 65.1602 51.5888C65.2444 51.4046 65.2782 51.2089 65.2147 51.0104C65.1581 50.834 65.0109 50.6465 64.8335 50.5687C64.473 50.4058 63.964 50.5079 63.7868 50.8972Z" fill="#BA2B40"/>
<path d="M67.0266 50.9424C66.3673 51.8289 65.7931 52.7676 65.3387 53.7689C65.2545 53.9531 65.2215 54.1515 65.2842 54.3473C65.3408 54.5237 65.488 54.7111 65.6654 54.7889C66.0259 54.9519 66.5348 54.8498 66.7121 54.4604C67.094 53.6215 67.5558 52.8182 68.0917 52.0614L67.978 52.2215C68.0426 52.1314 68.1071 52.0414 68.1725 51.9541C68.2967 51.7877 68.3823 51.6273 68.3742 51.4175C68.3667 51.2287 68.2708 51.007 68.1223 50.8837C67.9738 50.7604 67.775 50.6741 67.575 50.6913C67.3751 50.7086 67.1488 50.7796 67.0266 50.9424Z" fill="#3E64AE"/>
<path d="M26.7032 52.4666C26.7282 51.6213 26.7569 50.778 26.7819 49.9327L26.9736 43.8834L27.2048 36.5292C27.2726 34.4083 27.3385 32.2912 27.4063 30.1703L27.4735 28.077C27.4846 27.7519 27.523 27.4152 27.506 27.0898C27.5044 27.0752 27.5056 27.0596 27.5069 27.044L26.9636 27.7971L30.6806 26.6305C31.634 26.3313 31.1721 24.8894 30.2188 25.1886L26.5017 26.3553C26.1594 26.4627 25.9687 26.7713 25.9584 27.1083C25.9334 27.9535 25.9047 28.7969 25.8797 29.6421L25.6881 35.6915L25.4568 43.0457L25.2554 49.4046C25.2241 50.4247 25.1278 51.4653 25.1594 52.4869C25.161 52.5016 25.1597 52.5172 25.1585 52.5327C25.129 53.5098 26.6786 53.4392 26.707 52.4685L26.7032 52.4666Z" fill="#231F20"/>
<path d="M37.5376 37.9284C36.3736 36.6371 35.2097 35.3459 34.0486 34.0537C32.2124 32.0147 30.3733 29.9765 28.5371 27.9375C28.1079 27.4624 27.6823 26.9891 27.253 26.514C26.9779 26.209 26.4167 26.2941 26.1573 26.5727C25.8499 26.9058 25.9315 27.3353 26.2075 27.6431C27.3715 28.9344 28.5354 30.2257 29.6965 31.5178C31.5327 33.5569 33.3718 35.595 35.208 37.6341C35.6372 38.1092 36.0628 38.5824 36.4921 39.0575C36.7672 39.3626 37.3284 39.2775 37.5878 38.9988C37.8952 38.6657 37.8136 38.2362 37.5376 37.9284Z" fill="#231F20"/>
<path d="M27.7024 56.2362C27.8297 56.1963 27.9307 56.2101 27.6828 56.2333C27.7673 56.225 27.8548 56.2066 27.9393 56.1983C28.1968 56.166 28.454 56.1429 28.7121 56.1226C29.54 56.0539 30.3693 56.0091 31.1958 55.9651C33.7896 55.8306 36.3874 55.7374 38.9831 55.6479C42.315 55.5336 45.6466 55.4376 48.9762 55.3453C52.3058 55.253 55.8461 55.1674 59.2823 55.0871C62.1813 55.0207 65.0783 54.958 67.9742 54.9016C68.2742 54.8955 68.5743 54.8893 68.8743 54.8831C69.8736 54.8638 69.818 53.349 68.8224 53.3703C66.0062 53.4228 63.1926 53.4836 60.3771 53.5481C56.9709 53.625 53.5637 53.7083 50.1592 53.7999C46.7546 53.8914 43.379 53.986 39.9872 54.0979C37.2668 54.1871 34.5453 54.2828 31.824 54.4178C30.4235 54.4872 28.982 54.4966 27.5952 54.7256C27.4796 54.7436 27.3518 54.7625 27.2377 54.7953C26.2791 55.0779 26.741 56.5198 27.6996 56.2371L27.7024 56.2362Z" fill="#231F20"/>
<path d="M28.7045 52.5907C29.878 51.2394 31.0496 49.8917 32.2231 48.5403C34.0908 46.3917 35.9613 44.2421 37.8281 42.0906C38.2557 41.5984 38.6813 41.1098 39.109 40.6176C39.7551 39.8747 38.6139 38.8585 37.963 39.6059C36.7894 40.9572 35.6178 42.3049 34.4443 43.6563C32.5766 45.805 30.7061 47.9545 28.8394 50.106C28.4118 50.5982 27.9861 51.0868 27.5585 51.579C26.9123 52.3219 28.0535 53.3381 28.7045 52.5907Z" fill="#231F20"/>
<path d="M38.7637 44.1271C41.0948 43.9113 43.426 43.6954 45.7543 43.4804C49.3886 43.1438 53.0192 42.8054 56.6535 42.4687C57.382 42.4009 58.1185 42.3579 58.8428 42.2671C59.2403 42.2151 59.4152 41.9934 59.6527 41.7338L60.5662 40.7371C62.9391 38.1537 65.3119 35.5704 67.6848 32.987C69.5128 30.9964 71.3778 29.0336 73.1717 27.0143C73.2014 26.9807 73.2339 26.9462 73.2645 26.9154C73.9339 26.1865 72.7907 25.1739 72.1185 25.9037C70.5491 27.6129 68.9768 29.323 67.4073 31.0322C64.9262 33.7345 62.4423 36.4376 59.9612 39.1399C59.3914 39.7617 58.8188 40.3844 58.2481 41.0034L58.7966 40.7524C56.5256 40.9615 54.2526 41.1743 51.9815 41.3834C48.3895 41.7159 44.7946 42.0492 41.2035 42.3844C40.3754 42.4623 39.5436 42.5383 38.7155 42.6161C37.7241 42.7088 37.7731 44.2226 38.7674 44.129L38.7637 44.1271Z" fill="#231F20"/>
<path d="M59.6969 40.2876C60.1299 41.5807 61.397 42.2419 62.3017 43.1807C63.2064 44.1194 63.9323 45.2387 64.6609 46.3177C66.2711 48.7008 67.7787 51.1524 69.1822 53.658C69.3813 54.0172 69.9207 54.0876 70.2547 53.8766C70.6295 53.6376 70.6871 53.1856 70.488 52.8264C69.11 50.3614 67.6278 47.9503 66.0478 45.6033C65.2892 44.4791 64.5288 43.3494 63.6162 42.3373C63.1869 41.8622 62.7106 41.4443 62.2154 41.0354C61.8004 40.6923 61.3555 40.3435 61.1792 39.8223C60.8712 38.8996 59.3908 39.3612 59.6998 40.2867L59.6969 40.2876Z" fill="#231F20"/>
<path d="M32.0623 32.3044C31.6006 28.4626 31.5277 24.5807 31.8405 20.7172C31.8747 20.309 31.4258 19.9766 31.0384 19.992C30.5807 20.0113 30.3225 20.3714 30.2892 20.7824C29.9764 24.6458 30.0493 28.5277 30.511 32.3695C30.5602 32.7758 30.8704 33.1123 31.3131 33.0948C31.7061 33.0776 32.1096 32.7143 32.0623 32.3044Z" fill="#231F20"/>
<path d="M41.2681 18.95C44.035 16.9651 46.8567 15.054 49.6692 13.1337C49.9552 12.9377 50.2411 12.7418 50.5307 12.5478L49.5902 12.4788C51.983 14.2825 54.3753 16.1137 56.6098 18.1035C57.3449 18.7557 58.3913 17.6294 57.6553 16.9744C55.4217 14.9873 53.0285 13.1534 50.6357 11.3497C50.3688 11.1483 49.9916 11.0786 49.6952 11.2808C47.3511 12.8751 45.0106 14.4805 42.6838 16.0997C41.9303 16.6244 41.1797 17.1483 40.4355 17.6822C39.6332 18.2586 40.4639 19.5301 41.2738 18.9483L41.2681 18.95Z" fill="#231F20"/>
<path d="M33.46 21.4773C42.186 21.3691 50.9023 20.3659 59.4386 18.509C61.8423 17.9852 64.2334 17.3925 66.6051 16.73L65.6 16.0412C66.0923 20.3771 66.6101 24.705 67.2274 29.0228C67.2851 29.4264 67.5783 29.7683 68.0294 29.748C68.4131 29.7308 68.8344 29.3649 68.7787 28.9577C68.1614 24.6398 67.6427 20.3092 67.1513 15.9761C67.0954 15.4809 66.6578 15.1449 66.1461 15.2873C57.8427 17.599 49.3139 19.0713 40.7153 19.6644C38.2848 19.8325 35.8472 19.9301 33.4129 19.9599C32.4146 19.9728 32.4693 21.4848 33.4648 21.4727L33.46 21.4773Z" fill="#231F20"/>
<path d="M36.2832 25.2755C36.1257 26.5719 36.1467 27.8912 36.1709 29.1912C36.1998 30.7781 36.269 32.3644 36.387 33.9475C36.4366 34.6176 36.4928 35.2887 36.5819 35.9556C36.6368 36.3601 36.9356 36.7001 37.3839 36.6808C37.7713 36.6654 38.1861 36.2986 38.1332 35.8904C37.9012 34.1458 37.8263 32.3762 37.7642 30.6178C37.7281 29.64 37.707 28.6606 37.714 27.6814C37.7166 27.2619 37.7229 26.8443 37.7414 26.4258C37.7504 26.2501 37.7595 26.0743 37.7714 25.8976C37.7776 25.8198 37.7838 25.742 37.79 25.6642C37.77 25.8738 37.7943 25.6386 37.7998 25.5974C37.8499 25.1903 37.6563 24.7899 37.2177 24.6939C36.8435 24.6142 36.3373 24.861 36.288 25.2709L36.2832 25.2755Z" fill="#231F20"/>
<path d="M72.4444 49.6823C72.6675 43.6534 72.8906 37.6245 73.1137 31.5957C73.1771 29.8889 73.2386 28.1857 73.302 26.4789C73.3175 26.0705 72.8995 25.7374 72.5 25.7536C72.0573 25.7712 71.7653 26.1329 71.7507 26.544C71.5276 32.5729 71.3045 38.6017 71.0815 44.6306C71.018 46.3374 70.9565 48.0406 70.8931 49.7474C70.8776 50.1558 71.2956 50.4888 71.6951 50.4726C72.1378 50.4551 72.4298 50.0934 72.4444 49.6823Z" fill="#231F20"/>
</g>
<defs>
<clipPath id="clip0_385_5761">
<rect width="89.6491" height="47.4148" fill="white" transform="matrix(0.954112 -0.29945 0.305067 0.952331 0 26.8447)"/>
</clipPath>
</defs>
</svg>
